<mxfile host="app.diagrams.net" modified="2023-11-05T15:42:47.289Z" agent="Mozilla/5.0 (Windows NT 10.0; Win64; x64) AppleWebKit/537.36 (KHTML, like Gecko) Chrome/116.0.0.0 Safari/537.36" etag="FiXBPzMalQbWtrYVyt87" version="21.1.1" type="device">
  <diagram name="Trang-1" id="NKGNTXxKcWxRXpRBduQW">
    <mxGraphModel dx="2329" dy="1067" grid="0" gridSize="10" guides="1" tooltips="1" connect="1" arrows="1" fold="1" page="1" pageScale="1" pageWidth="827" pageHeight="1169" math="0" shadow="0">
      <root>
        <mxCell id="0" />
        <mxCell id="1" parent="0" />
        <mxCell id="IN-eBFpWBXS0Hc5TUv0M-14" value="" style="edgeStyle=orthogonalEdgeStyle;rounded=0;orthogonalLoop=1;jettySize=auto;html=1;" edge="1" parent="1" source="IN-eBFpWBXS0Hc5TUv0M-1" target="IN-eBFpWBXS0Hc5TUv0M-8">
          <mxGeometry relative="1" as="geometry" />
        </mxCell>
        <mxCell id="IN-eBFpWBXS0Hc5TUv0M-1" value="Khởi động" style="rounded=0;whiteSpace=wrap;html=1;" vertex="1" parent="1">
          <mxGeometry x="394" y="65" width="120" height="60" as="geometry" />
        </mxCell>
        <mxCell id="IN-eBFpWBXS0Hc5TUv0M-20" value="" style="edgeStyle=orthogonalEdgeStyle;rounded=0;orthogonalLoop=1;jettySize=auto;html=1;" edge="1" parent="1" source="IN-eBFpWBXS0Hc5TUv0M-2" target="IN-eBFpWBXS0Hc5TUv0M-9">
          <mxGeometry relative="1" as="geometry" />
        </mxCell>
        <mxCell id="IN-eBFpWBXS0Hc5TUv0M-2" value="Kiểm tra EEPROM" style="rounded=0;whiteSpace=wrap;html=1;" vertex="1" parent="1">
          <mxGeometry x="624" y="265" width="120" height="60" as="geometry" />
        </mxCell>
        <mxCell id="IN-eBFpWBXS0Hc5TUv0M-30" value="" style="edgeStyle=none;rounded=0;orthogonalLoop=1;jettySize=auto;html=1;" edge="1" parent="1" source="IN-eBFpWBXS0Hc5TUv0M-3" target="IN-eBFpWBXS0Hc5TUv0M-4">
          <mxGeometry relative="1" as="geometry" />
        </mxCell>
        <mxCell id="IN-eBFpWBXS0Hc5TUv0M-3" value="Xóa EEPROM;&lt;br&gt;AccessPoint;&lt;br&gt;LCDnoWF" style="rounded=0;whiteSpace=wrap;html=1;" vertex="1" parent="1">
          <mxGeometry x="394" y="365" width="120" height="60" as="geometry" />
        </mxCell>
        <mxCell id="IN-eBFpWBXS0Hc5TUv0M-31" value="" style="edgeStyle=none;rounded=0;orthogonalLoop=1;jettySize=auto;html=1;" edge="1" parent="1" source="IN-eBFpWBXS0Hc5TUv0M-4" target="IN-eBFpWBXS0Hc5TUv0M-6">
          <mxGeometry relative="1" as="geometry" />
        </mxCell>
        <mxCell id="IN-eBFpWBXS0Hc5TUv0M-4" value="Đăng ký Wifi;&lt;br&gt;Đăng ký MQTT" style="rounded=0;whiteSpace=wrap;html=1;" vertex="1" parent="1">
          <mxGeometry x="394" y="465" width="120" height="60" as="geometry" />
        </mxCell>
        <mxCell id="IN-eBFpWBXS0Hc5TUv0M-38" value="" style="edgeStyle=none;rounded=0;orthogonalLoop=1;jettySize=auto;html=1;" edge="1" parent="1" source="IN-eBFpWBXS0Hc5TUv0M-5" target="IN-eBFpWBXS0Hc5TUv0M-11">
          <mxGeometry relative="1" as="geometry" />
        </mxCell>
        <mxCell id="IN-eBFpWBXS0Hc5TUv0M-5" value="Nháy LED;&lt;br&gt;Kiểm tra nút;&lt;br&gt;Hiển thị dữ liệu MQTT;" style="rounded=0;whiteSpace=wrap;html=1;" vertex="1" parent="1">
          <mxGeometry x="387.5" y="815" width="133" height="60" as="geometry" />
        </mxCell>
        <mxCell id="IN-eBFpWBXS0Hc5TUv0M-32" value="" style="edgeStyle=none;rounded=0;orthogonalLoop=1;jettySize=auto;html=1;" edge="1" parent="1" source="IN-eBFpWBXS0Hc5TUv0M-6" target="IN-eBFpWBXS0Hc5TUv0M-10">
          <mxGeometry relative="1" as="geometry" />
        </mxCell>
        <mxCell id="IN-eBFpWBXS0Hc5TUv0M-6" value="LCD hiển thị MQTT;" style="rounded=0;whiteSpace=wrap;html=1;" vertex="1" parent="1">
          <mxGeometry x="394" y="565" width="120" height="60" as="geometry" />
        </mxCell>
        <mxCell id="IN-eBFpWBXS0Hc5TUv0M-7" value="Tắt đèn" style="rounded=0;whiteSpace=wrap;html=1;" vertex="1" parent="1">
          <mxGeometry x="394" y="995" width="120" height="60" as="geometry" />
        </mxCell>
        <mxCell id="IN-eBFpWBXS0Hc5TUv0M-53" value="Y" style="edgeStyle=none;rounded=0;orthogonalLoop=1;jettySize=auto;html=1;" edge="1" parent="1" source="IN-eBFpWBXS0Hc5TUv0M-8" target="IN-eBFpWBXS0Hc5TUv0M-3">
          <mxGeometry x="0.2" y="10" relative="1" as="geometry">
            <mxPoint as="offset" />
          </mxGeometry>
        </mxCell>
        <mxCell id="IN-eBFpWBXS0Hc5TUv0M-8" value="Trong 5s đầu nhấn nút" style="rhombus;whiteSpace=wrap;html=1;" vertex="1" parent="1">
          <mxGeometry x="403" y="155" width="102" height="110" as="geometry" />
        </mxCell>
        <mxCell id="IN-eBFpWBXS0Hc5TUv0M-22" value="N" style="edgeStyle=orthogonalEdgeStyle;rounded=0;orthogonalLoop=1;jettySize=auto;html=1;" edge="1" parent="1" source="IN-eBFpWBXS0Hc5TUv0M-9">
          <mxGeometry x="0.0769" y="-10" relative="1" as="geometry">
            <mxPoint x="514" y="395" as="targetPoint" />
            <mxPoint as="offset" />
          </mxGeometry>
        </mxCell>
        <mxCell id="IN-eBFpWBXS0Hc5TUv0M-9" value="Có dữ liệu" style="rhombus;whiteSpace=wrap;html=1;" vertex="1" parent="1">
          <mxGeometry x="644" y="355" width="80" height="80" as="geometry" />
        </mxCell>
        <mxCell id="IN-eBFpWBXS0Hc5TUv0M-33" value="Y" style="edgeStyle=none;rounded=0;orthogonalLoop=1;jettySize=auto;html=1;" edge="1" parent="1" source="IN-eBFpWBXS0Hc5TUv0M-10" target="IN-eBFpWBXS0Hc5TUv0M-5">
          <mxGeometry x="-0.5" y="10" relative="1" as="geometry">
            <mxPoint as="offset" />
          </mxGeometry>
        </mxCell>
        <mxCell id="IN-eBFpWBXS0Hc5TUv0M-10" value="Nhận được dữ liệu từ MQTT" style="rhombus;whiteSpace=wrap;html=1;" vertex="1" parent="1">
          <mxGeometry x="404" y="655" width="100" height="120" as="geometry" />
        </mxCell>
        <mxCell id="IN-eBFpWBXS0Hc5TUv0M-39" value="Y" style="edgeStyle=none;rounded=0;orthogonalLoop=1;jettySize=auto;html=1;" edge="1" parent="1" source="IN-eBFpWBXS0Hc5TUv0M-11" target="IN-eBFpWBXS0Hc5TUv0M-7">
          <mxGeometry x="-1" y="10" relative="1" as="geometry">
            <mxPoint as="offset" />
          </mxGeometry>
        </mxCell>
        <mxCell id="IN-eBFpWBXS0Hc5TUv0M-11" value="Nhấn nút" style="rhombus;whiteSpace=wrap;html=1;" vertex="1" parent="1">
          <mxGeometry x="414" y="895" width="80" height="80" as="geometry" />
        </mxCell>
        <mxCell id="IN-eBFpWBXS0Hc5TUv0M-12" value="Kiểm tra có WF" style="rhombus;whiteSpace=wrap;html=1;" vertex="1" parent="1">
          <mxGeometry x="134" y="675" width="80" height="100" as="geometry" />
        </mxCell>
        <mxCell id="IN-eBFpWBXS0Hc5TUv0M-17" value="" style="edgeStyle=orthogonalEdgeStyle;rounded=0;orthogonalLoop=1;jettySize=auto;html=1;" edge="1" parent="1" target="IN-eBFpWBXS0Hc5TUv0M-2">
          <mxGeometry relative="1" as="geometry">
            <mxPoint x="684" y="210" as="sourcePoint" />
          </mxGeometry>
        </mxCell>
        <mxCell id="IN-eBFpWBXS0Hc5TUv0M-19" value="N" style="endArrow=none;html=1;rounded=0;exitX=1;exitY=0.5;exitDx=0;exitDy=0;strokeColor=#000000;" edge="1" parent="1" source="IN-eBFpWBXS0Hc5TUv0M-8">
          <mxGeometry x="-0.2291" y="15" width="50" height="50" relative="1" as="geometry">
            <mxPoint x="544" y="195" as="sourcePoint" />
            <mxPoint x="684" y="210" as="targetPoint" />
            <Array as="points">
              <mxPoint x="594" y="210" />
            </Array>
            <mxPoint as="offset" />
          </mxGeometry>
        </mxCell>
        <mxCell id="IN-eBFpWBXS0Hc5TUv0M-26" value="" style="endArrow=none;html=1;rounded=0;entryX=0.5;entryY=1;entryDx=0;entryDy=0;" edge="1" parent="1" target="IN-eBFpWBXS0Hc5TUv0M-9">
          <mxGeometry width="50" height="50" relative="1" as="geometry">
            <mxPoint x="684" y="495" as="sourcePoint" />
            <mxPoint x="594" y="435" as="targetPoint" />
          </mxGeometry>
        </mxCell>
        <mxCell id="IN-eBFpWBXS0Hc5TUv0M-29" value="Y" style="endArrow=classic;html=1;rounded=0;entryX=1;entryY=0.5;entryDx=0;entryDy=0;" edge="1" parent="1" target="IN-eBFpWBXS0Hc5TUv0M-4">
          <mxGeometry x="0.0588" y="-10" width="50" height="50" relative="1" as="geometry">
            <mxPoint x="684" y="495" as="sourcePoint" />
            <mxPoint x="594" y="435" as="targetPoint" />
            <mxPoint as="offset" />
          </mxGeometry>
        </mxCell>
        <mxCell id="IN-eBFpWBXS0Hc5TUv0M-34" value="N" style="endArrow=none;html=1;rounded=0;exitX=1;exitY=0.5;exitDx=0;exitDy=0;" edge="1" parent="1" source="IN-eBFpWBXS0Hc5TUv0M-10">
          <mxGeometry y="10" width="50" height="50" relative="1" as="geometry">
            <mxPoint x="544" y="725" as="sourcePoint" />
            <mxPoint x="604" y="715" as="targetPoint" />
            <mxPoint as="offset" />
          </mxGeometry>
        </mxCell>
        <mxCell id="IN-eBFpWBXS0Hc5TUv0M-36" value="" style="endArrow=none;html=1;rounded=0;" edge="1" parent="1">
          <mxGeometry width="50" height="50" relative="1" as="geometry">
            <mxPoint x="604" y="715" as="sourcePoint" />
            <mxPoint x="604" y="595" as="targetPoint" />
          </mxGeometry>
        </mxCell>
        <mxCell id="IN-eBFpWBXS0Hc5TUv0M-37" value="" style="endArrow=classic;html=1;rounded=0;entryX=1;entryY=0.5;entryDx=0;entryDy=0;" edge="1" parent="1" target="IN-eBFpWBXS0Hc5TUv0M-6">
          <mxGeometry width="50" height="50" relative="1" as="geometry">
            <mxPoint x="604" y="595" as="sourcePoint" />
            <mxPoint x="594" y="675" as="targetPoint" />
          </mxGeometry>
        </mxCell>
        <mxCell id="IN-eBFpWBXS0Hc5TUv0M-40" value="N" style="endArrow=none;html=1;rounded=0;exitX=1;exitY=0.5;exitDx=0;exitDy=0;" edge="1" parent="1" source="IN-eBFpWBXS0Hc5TUv0M-11">
          <mxGeometry x="-0.0909" y="10" width="50" height="50" relative="1" as="geometry">
            <mxPoint x="544" y="955" as="sourcePoint" />
            <mxPoint x="604" y="935" as="targetPoint" />
            <mxPoint as="offset" />
          </mxGeometry>
        </mxCell>
        <mxCell id="IN-eBFpWBXS0Hc5TUv0M-41" value="" style="endArrow=none;html=1;rounded=0;" edge="1" parent="1">
          <mxGeometry width="50" height="50" relative="1" as="geometry">
            <mxPoint x="604" y="935" as="sourcePoint" />
            <mxPoint x="604" y="845" as="targetPoint" />
          </mxGeometry>
        </mxCell>
        <mxCell id="IN-eBFpWBXS0Hc5TUv0M-42" value="" style="endArrow=classic;html=1;rounded=0;entryX=1;entryY=0.5;entryDx=0;entryDy=0;" edge="1" parent="1" target="IN-eBFpWBXS0Hc5TUv0M-5">
          <mxGeometry width="50" height="50" relative="1" as="geometry">
            <mxPoint x="604" y="845" as="sourcePoint" />
            <mxPoint x="594" y="865" as="targetPoint" />
          </mxGeometry>
        </mxCell>
        <mxCell id="IN-eBFpWBXS0Hc5TUv0M-43" value="" style="endArrow=none;html=1;rounded=0;exitX=0;exitY=0.5;exitDx=0;exitDy=0;" edge="1" parent="1" source="IN-eBFpWBXS0Hc5TUv0M-7">
          <mxGeometry width="50" height="50" relative="1" as="geometry">
            <mxPoint x="544" y="955" as="sourcePoint" />
            <mxPoint x="284" y="1025" as="targetPoint" />
          </mxGeometry>
        </mxCell>
        <mxCell id="IN-eBFpWBXS0Hc5TUv0M-44" value="" style="endArrow=none;html=1;rounded=0;" edge="1" parent="1">
          <mxGeometry width="50" height="50" relative="1" as="geometry">
            <mxPoint x="284" y="1025" as="sourcePoint" />
            <mxPoint x="284" y="614.047619047619" as="targetPoint" />
          </mxGeometry>
        </mxCell>
        <mxCell id="IN-eBFpWBXS0Hc5TUv0M-45" value="" style="endArrow=classic;html=1;rounded=0;entryX=-0.01;entryY=0.837;entryDx=0;entryDy=0;entryPerimeter=0;" edge="1" parent="1" target="IN-eBFpWBXS0Hc5TUv0M-6">
          <mxGeometry width="50" height="50" relative="1" as="geometry">
            <mxPoint x="284" y="615" as="sourcePoint" />
            <mxPoint x="594" y="715" as="targetPoint" />
          </mxGeometry>
        </mxCell>
        <mxCell id="IN-eBFpWBXS0Hc5TUv0M-46" value="" style="endArrow=none;html=1;rounded=0;entryX=0;entryY=0.5;entryDx=0;entryDy=0;edgeStyle=elbowEdgeStyle;elbow=vertical;" edge="1" parent="1" target="IN-eBFpWBXS0Hc5TUv0M-6">
          <mxGeometry width="50" height="50" relative="1" as="geometry">
            <mxPoint x="174" y="595" as="sourcePoint" />
            <mxPoint x="594" y="625" as="targetPoint" />
          </mxGeometry>
        </mxCell>
        <mxCell id="IN-eBFpWBXS0Hc5TUv0M-47" value="" style="endArrow=classic;html=1;rounded=0;entryX=0.5;entryY=0;entryDx=0;entryDy=0;" edge="1" parent="1" target="IN-eBFpWBXS0Hc5TUv0M-12">
          <mxGeometry width="50" height="50" relative="1" as="geometry">
            <mxPoint x="174" y="595" as="sourcePoint" />
            <mxPoint x="394" y="655" as="targetPoint" />
          </mxGeometry>
        </mxCell>
        <mxCell id="IN-eBFpWBXS0Hc5TUv0M-49" value="" style="endArrow=none;html=1;rounded=0;exitX=0;exitY=0.5;exitDx=0;exitDy=0;" edge="1" parent="1" source="IN-eBFpWBXS0Hc5TUv0M-12">
          <mxGeometry width="50" height="50" relative="1" as="geometry">
            <mxPoint x="394" y="655" as="sourcePoint" />
            <mxPoint x="84" y="725" as="targetPoint" />
          </mxGeometry>
        </mxCell>
        <mxCell id="IN-eBFpWBXS0Hc5TUv0M-50" value="N" style="endArrow=none;html=1;rounded=0;" edge="1" parent="1">
          <mxGeometry x="-0.0435" y="-10" width="50" height="50" relative="1" as="geometry">
            <mxPoint x="84" y="725" as="sourcePoint" />
            <mxPoint x="84" y="495" as="targetPoint" />
            <Array as="points">
              <mxPoint x="84" y="605" />
            </Array>
            <mxPoint as="offset" />
          </mxGeometry>
        </mxCell>
        <mxCell id="IN-eBFpWBXS0Hc5TUv0M-51" value="" style="endArrow=classic;html=1;rounded=0;entryX=0;entryY=0.5;entryDx=0;entryDy=0;" edge="1" parent="1" target="IN-eBFpWBXS0Hc5TUv0M-4">
          <mxGeometry width="50" height="50" relative="1" as="geometry">
            <mxPoint x="84" y="495" as="sourcePoint" />
            <mxPoint x="444" y="605" as="targetPoint" />
          </mxGeometry>
        </mxCell>
        <mxCell id="IN-eBFpWBXS0Hc5TUv0M-52" value="Y" style="endArrow=classic;html=1;rounded=0;exitX=1;exitY=0.5;exitDx=0;exitDy=0;" edge="1" parent="1" source="IN-eBFpWBXS0Hc5TUv0M-12">
          <mxGeometry x="-0.1429" y="10" width="50" height="50" relative="1" as="geometry">
            <mxPoint x="394" y="725" as="sourcePoint" />
            <mxPoint x="284" y="725" as="targetPoint" />
            <mxPoint as="offset" />
          </mxGeometry>
        </mxCell>
      </root>
    </mxGraphModel>
  </diagram>
</mxfile>
